<svg width="100" height="100" viewBox="0 0 100 100" fill="none" xmlns="http://www.w3.org/2000/svg">
<path d="M19.6216 66.4995L39.2973 55.4664L39.8378 54.6138L39.2973 53.9619H38.3243L35.027 53.7613L23.7838 53.4604L14.0541 53.0592L4.59459 52.5577H3.08108L2.21622 52.0562L1.13514 51.0532L0.216216 50.1003L0 49.0973L0.216216 47.6429L0.864865 46.5396L1.40541 46.2889H2.21622L5.08108 46.5396L11.4054 46.991L20.9189 47.6429L27.7838 48.0441L38 49.0973H39.6216L39.8378 48.4453L39.2973 48.0441L38.8649 47.6429L29.027 40.9729L18.3784 33.9519L12.8108 29.8897L9.83784 27.8335L8.32432 25.9278L7.67568 24.5236L7.35135 23.0692L7.67568 21.7151L8.32432 20.5115L9.13514 19.6088L10.3784 18.7061H11.7297L14.0541 18.9569L14.973 19.2076L18.7027 22.0662L26.6486 28.2347L37.027 35.8576L38.5405 37.1113H39.2432V36.4092L38.5405 35.2558L32.9189 25.0752L26.9189 14.6941L24.2162 10.3811L23.5135 7.82347C23.3694 7.2551 23.0811 6.10832 23.0811 6.0682V4.76429L23.6216 3.15948L24.5946 1.50451L26.1622 0.551655L27.8919 0H29.2432L30.2162 0.150451L32.0541 0.551655L33.7838 2.05617L36.3784 7.97392L40.5405 17.2518L47.027 29.8897L48.9189 33.651L49.9459 37.1113L50.3243 38.1645H50.973V37.5627L51.5135 30.4413L52.4865 21.7151L53.4595 10.4814L53.7838 7.32197L55.3514 3.51053L56.1081 2.60782L57.6216 1.45436H58.4865L60.9189 2.60782L62.3243 4.16249L62.9189 5.4664L62.6486 7.32197L61.4595 15.0451L59.1351 27.1314L57.6216 35.2558H58.4865L59.5135 34.2026L63.6216 28.7864L70.4865 20.1605L73.5135 16.7502L77.0811 12.989L79.3514 11.1835L81.3514 10.4814L83.6757 11.1835L85.7297 12.8887L86.8108 15.8977V17.2518L85.4054 20.7623L80.973 26.3791L77.2973 31.1434L75.027 34.8044L68.7568 43.8816V44.2828H69.8378L81.7297 41.7252L88.1622 40.5717L95.8378 39.2678L97.3514 39.669L99.2973 40.8726L99.6757 42.5276L99.2973 44.5336L98.3243 45.8877L90.1081 47.8937L80.4865 49.8495L66.1587 53.2224C66.0657 53.2443 66 53.3273 66 53.4228C66 53.5293 66.0812 53.6182 66.1873 53.6278L72.6486 54.2126L75.4054 54.3631H82.1622L94.7568 55.3159L98.0541 57.4724L99.6757 58.7262L100 60.1304L99.6757 62.1866L99.027 63.1394L96.3243 64.3932L94.5946 64.7442L87.7838 63.1394L71.8378 59.328L66.3784 57.9739H65.6216V58.4253L70.1622 62.8887L78.5405 70.4112L88.973 80.1404L89.5135 81.8455V82.5476L88.1622 84.4534L87.027 84.5035L86.7568 84.2528L77.5676 77.332L76.8649 77.0311L74 74.2227L66 67.4524H65.4595V68.1545L67.2973 70.8626L77.0811 85.5567L77.5676 90.0702L76.8649 91.5246L74.3243 92.4273L72.9189 92.2267L71.5676 91.9258L70.3784 90.8726L65.7838 83.8515L59.8919 74.8245L55.1351 66.7001H54.9589C54.7524 66.7001 54.5799 66.8572 54.5606 67.0628L51.7297 97.2919L50.4324 98.8465L47.7838 100H47.4054L44.8649 98.0943L43.5135 94.9849L44.8649 88.8164L46.4865 80.7924L47.7838 74.4233L48.973 66.4995L49.6992 63.8524C49.7175 63.7858 49.6918 63.7148 49.6351 63.6754C49.4473 63.5447 49.1896 63.588 49.0549 63.7728L43.0811 71.9659L34 84.2528L26.8108 91.9258L25.0811 92.6279H23.7838L22.1081 91.0732V90.321L22.3784 88.3149L24.0541 85.8576L34 73.2197L40 65.346L43.867 60.8264C44.0319 60.6337 44.0153 60.3452 43.8294 60.1727C43.7708 60.1183 43.6828 60.1108 43.6159 60.1545L17.1892 77.3821L12.4865 77.9839L10.4324 76.0782L10.7027 72.9689L11.6757 71.9659L19.6216 66.4995Z" fill="#D97757"/>
</svg>
