<svg width="231" height="231" viewBox="0 0 231 231" fill="none" xmlns="http://www.w3.org/2000/svg">
<path d="M13.2126 7.29989C12.5126 7.99989 11.5125 9.79989 10.3125 9.89989C9.61255 10.2999 9.31256 11.2999 8.51256 11.7999C7.31256 12.7999 6.81256 13.2999 6.51256 14.4999C6.31256 14.8999 5.91255 14.8999 5.61255 15.1999C5.01254 15.8999 4.41255 17.2999 3.91255 17.8999C1.01256 26.8999 1.71254 39.0999 7.31255 43.9999C13.2125 54.6999 27.9126 57.8999 37.6125 54.4999C45.8125 52.9999 48.7125 40.6999 57.3125 47.6999C72.5125 56.1999 89.2125 63.5999 105.313 72.7999C116.713 77.8999 127.013 83.9999 137.013 89.5999C141.013 92.7999 148.813 93.9999 152.413 97.5999C160.513 102.8 174.613 105.4 175.713 116.6C177.013 122.9 174.813 120.1 172.113 124.4C171.913 123.8 170.613 125.3 170.213 125.7C167.313 126.5 165.913 127.3 164.013 128.2C141.613 138 119.413 151.5 96.8125 160.8C96.2125 161.1 95.7126 161.7 95.2126 161.9C94.8126 162 94.3125 162.1 93.9126 162.4C92.4126 163.5 90.5126 164.9 88.7126 164.8C77.9126 171.5 64.3126 177.7 52.7126 183C44.7126 188.5 39.9126 176.1 31.4126 176.7C17.2126 172.2 4.71255 183.9 0.612549 195.9C0.112549 205.7 1.41255 217.1 9.51256 223.3C22.2126 235.2 43.9126 232.3 51.2126 215.5C54.5126 210.3 50.9126 204 55.0126 199.1C57.6126 190.2 68.8125 189.3 75.9126 185.1C88.3125 178.4 105.213 171.3 117.513 164.4C123.113 162 129.013 158.8 134.313 156C134.613 156 135.213 156 135.613 155.7C135.913 155.4 136.013 155.2 136.413 154.9C150.513 148.9 165.113 140.9 179.213 133.8C184.513 132.7 188.013 140.2 193.113 141.7C201.813 146.3 213.513 142.7 221.313 136.8C244.513 114.7 220.113 76.9999 190.913 90.4999C189.713 90.8999 188.213 92.0999 187.213 91.9999C186.513 92.7999 185.913 93.3999 185.213 93.4999C184.113 95.2999 181.613 97.5999 180.013 99.6999C171.113 94.1999 160.613 88.5999 152.913 82.9999C142.513 79.0999 132.813 71.0999 122.113 66.1999C104.913 56.7999 87.9126 49.0999 70.5126 39.8999C54.2126 34.8999 55.9126 26.7999 49.5126 13.3999C42.3126 0.49989 24.9126 -3.60011 13.2126 7.59989V7.29989Z" fill="#141413"/>
</svg>
