<svg width="231" height="231" viewBox="0 0 231 231" fill="none" xmlns="http://www.w3.org/2000/svg">
<path d="M217.332 7.29989C218.032 7.99989 219.032 9.79989 220.232 9.89989C220.932 10.2999 221.232 11.2999 222.032 11.7999C223.232 12.7999 223.732 13.2999 224.032 14.4999C224.232 14.8999 224.632 14.8999 224.932 15.1999C225.532 15.8999 226.132 17.2999 226.632 17.8999C229.532 26.8999 228.832 39.0999 223.232 43.9999C217.332 54.6999 202.632 57.8999 192.932 54.4999C184.732 52.9999 181.832 40.6999 173.232 47.6999C158.032 56.1999 141.332 63.5999 125.232 72.7999C113.832 77.8999 103.532 83.9999 93.5322 89.5999C89.5322 92.7999 81.7322 93.9999 78.1322 97.5999C70.0322 102.8 55.9322 105.4 54.8322 116.6C53.5322 122.9 55.7322 120.1 58.4322 124.4C58.6322 123.8 59.9322 125.3 60.3322 125.7C63.2322 126.5 64.6322 127.3 66.5322 128.2C88.9322 138 111.132 151.5 133.732 160.8C134.332 161.1 134.832 161.7 135.332 161.9C135.732 162 136.232 162.1 136.632 162.4C138.132 163.5 140.032 164.9 141.832 164.8C152.632 171.5 166.232 177.7 177.832 183C185.832 188.5 190.632 176.1 199.132 176.7C213.332 172.2 225.832 183.9 229.932 195.9C230.432 205.7 229.132 217.1 221.032 223.3C208.332 235.2 186.632 232.3 179.332 215.5C176.032 210.3 179.632 204 175.532 199.1C172.932 190.2 161.732 189.3 154.632 185.1C142.232 178.4 125.332 171.3 113.032 164.4C107.432 162 101.532 158.8 96.2322 156C95.9322 156 95.3322 156 94.9322 155.7C94.6322 155.4 94.5322 155.2 94.1322 154.9C80.0322 148.9 65.4322 140.9 51.3322 133.8C46.0322 132.7 42.5322 140.2 37.4322 141.7C28.7322 146.3 17.0322 142.7 9.23224 136.8C-13.9678 114.7 10.4322 76.9999 39.6322 90.4999C40.8322 90.8999 42.3322 92.0999 43.3322 91.9999C44.0322 92.7999 44.6322 93.3999 45.3322 93.4999C46.4322 95.2999 48.9322 97.5999 50.5322 99.6999C59.4322 94.1999 69.9322 88.5999 77.6322 82.9999C88.0322 79.0999 97.7322 71.0999 108.432 66.1999C125.632 56.7999 142.632 49.0999 160.032 39.8999C176.332 34.8999 174.632 26.7999 181.032 13.3999C188.232 0.49989 205.632 -3.60011 217.332 7.59989V7.29989Z" fill="#141413"/>
</svg>
