<svg width="223" height="224" viewBox="0 0 223 224" fill="none" xmlns="http://www.w3.org/2000/svg">
<path d="M113.385 224C109.632 223.957 103.249 223.111 100.025 221.128C96.3679 218.877 91.6694 214.682 89.5063 210.889C88.9734 209.953 88.2353 207.944 87.4147 206.345C87.0445 205.621 86.2261 204.808 83.1198 204.678C75.6807 205.032 68.226 204.734 60.7869 204.882C53.3278 205.03 47.2779 204.08 42.042 210.428C37.9791 215.354 37.2677 217.954 30.5667 220.293C19.5352 224.141 4.55897 217.468 0.953147 205.832C-2.44752 194.86 6.38749 177.556 17.6219 175.684C27.8841 173.972 34.8482 177.469 40.8334 185.735C43.6453 189.619 45.8887 195.004 51.3208 195.396C59.3575 195.976 68.9775 194.708 77.1146 194.289C80.8921 194.094 84.3106 194.502 87.631 191.841C88.4382 191.193 89.8341 187.376 90.57 186.1C91.7943 183.978 93.4868 181.745 95.2774 180.108C98.3347 177.312 104.008 174.774 104.505 170.245C105.069 165.111 104.851 158.81 104.975 153.564C105.071 149.55 105.874 141.674 105.19 138.012C104.498 134.323 95.5807 128.425 92.9828 124.762C91.8389 123.152 91.3505 121.367 89.5242 120.287C85.9741 118.188 82.0004 119.153 78.1872 119.178C69.205 119.232 57.4598 119.017 47.744 119.304C47.3471 119.375 46.0872 119.015 43.7078 121.481C43.2975 121.906 42.4546 124.583 41.8547 125.54C33.5705 138.771 13.7954 141.273 4.09065 128.167C0.770258 123.683 0.119136 113.809 1.35676 108.458C2.60998 103.035 8.38777 95.5957 13.5724 93.7567C25.7389 89.4357 35.098 92.4485 42.3096 103.328C43.7413 105.487 43.5517 106.686 46.1005 108.072C48.0963 109.159 48.9393 108.626 51.2829 108.574C62.0803 108.346 76.3742 109.094 87.1805 108.946C90.5187 108.07 90.5901 106.581 92.1109 104.036C94.1379 100.645 96.8005 96.0616 99.909 93.676C101.974 92.0901 106.333 90.446 106.94 87.7625C107.337 86.0086 107.196 79.5171 107.239 77.2346C107.35 71.1441 107.946 56.1363 106.2 51.0202C104.735 46.7284 102.489 47.8887 99.1865 45.9399C93.217 42.4187 92.9583 35.5957 88.4137 32.4328C86.4 31.0306 80.1517 30.9634 77.4825 30.8985C68.5873 30.6812 54.5654 31.2053 52.1125 31.4293C49.8803 31.6332 48.8121 32.5829 47.9224 33.2392C44.7849 35.5486 44.2675 38.6398 41.9751 41.7287C38.3113 46.6612 31.2246 50.0099 25.1792 49.7792C17.419 49.4835 11.561 47.3847 5.54681 42.4657C-4.88709 33.9336 0.85054 14.634 10.7939 8.30158C19.8207 2.55381 27.8641 2.10806 36.9957 7.91407C41.072 10.5057 43.0477 13.4535 45.4539 17.5952C45.8508 18.2784 46.1875 19.3514 46.4216 19.8867C46.7651 20.6774 48.9415 22.2678 50.4177 22.5926C51.8939 22.9174 72.2109 23.1638 83.0462 22.5053C91.5557 21.9878 91.3728 16.4417 95.4759 10.3377C103.58 -1.71111 121.602 -3.89509 131.258 7.34063C133.985 10.5124 134.62 13.1444 136.44 16.6186C139.143 21.7773 142.998 20.8298 148.109 20.9261C153.22 21.0224 170.23 21.5421 173.838 19.1431C175.988 17.714 177.625 13.9284 179.297 11.8542C185.773 3.8194 191.404 0.764081 201.815 1.70039C207.571 2.21783 216.506 8.59504 219.302 13.7761C226.565 27.2294 219.458 42.9383 206.094 48.1933C196.24 52.0685 180.887 47.7969 176.235 37.5198C175.274 35.3986 175.06 32.621 173.085 31.2658C170.074 29.2028 157.705 31.0978 153.684 31.2703C150.143 31.4226 142.648 30.6476 139.745 31.5369C137.613 32.1909 136.435 34.5989 133.86 37.717C131.284 40.835 128.537 43.8948 124.949 45.8951C121.847 47.6243 117.985 48.2291 117.298 52.5097L116.852 82.6733C117.01 85.4083 118.186 86.4902 119.43 87.935C121.767 90.6453 125.333 91.613 127.832 94.1419C129.228 95.5531 132.321 99.8695 133.436 101.646C133.804 102.23 134.469 104.034 134.774 104.32C137.805 107.158 147.132 105.826 151.198 105.893C155.642 105.967 165.438 107.447 169.238 106.202C173.038 104.957 177.444 96.6395 179.839 93.4924C194.249 74.5578 230.613 96.1557 219.068 120.345C216.551 125.62 209.071 131.765 203.728 133.657C196.869 136.085 191.375 135.494 184.825 132.775C181.59 131.431 177.359 127.504 175.506 124.467C174.184 122.296 174.179 120.291 171.751 118.956C167.075 116.387 152.839 117.57 147.05 117.59C143.962 117.601 139.123 116.799 136.346 118.007C133.427 119.274 133.345 121.541 131.652 124.003C129.96 126.465 125.725 130.519 123.087 132.123C120.639 133.61 116.482 134.627 115.998 138.343C115.34 143.392 116.266 150.323 116.357 155.506C116.486 162.779 114.132 170.507 121.294 174.924C127.38 178.676 130.776 180.334 134.502 187.114C135.08 188.167 135.666 190.235 136.224 190.943C138.697 194.085 150.877 193.377 154.748 193.317C159.845 193.238 166.781 193.644 171.483 191.424C173.722 190.369 174.634 187.347 176.05 185.287C184.123 173.54 195.437 170.825 208.492 175.5C218.618 179.127 222.018 187.141 222.935 197.649C224.072 210.701 210.095 224.036 197.73 222.734C188.072 221.718 181.313 217.152 175.158 209.803C173.316 207.603 173.584 205.937 170.754 204.351C168.747 203.224 166.874 203.623 164.807 203.663C159.205 203.773 153.599 203.365 148.007 203.289C145.766 203.26 142.155 203.007 140.07 203.289C139.147 203.412 137.026 205.095 136.348 205.789C134.638 207.545 134.181 210.347 132.894 212.583C129.594 218.324 120.362 223.933 113.868 223.991C113.712 223.991 113.552 223.991 113.396 223.991L113.385 224Z" fill="#141413"/>
</svg>
