<svg width="227" height="227" viewBox="0 0 227 227" fill="none" xmlns="http://www.w3.org/2000/svg">
<path d="M11.7999 178.1C15.3999 176.1 19.7999 174.3 24.1999 174.6C26.4999 174.9 31.4999 178.6 34.4999 176.1C36.1999 174.6 38.0999 172.7 39.9999 171.6C41.6999 169.2 43.4999 166.8 46.1999 165.3C51.0999 159 56.7999 153.4 62.9999 148.4C69.5999 142.5 74.8999 135.9 81.5999 130.2C108.9 104.2 136.1 81.0001 161 54.9001C173.1 44.0001 178 43.2001 175.7 25.6001C176.4 13.4001 188.8 -0.399888 201.2 0.100112C232.1 3.30011 235.6 47.5001 202.2 53.4001C191.4 54.4001 188.5 46.4001 179.4 55.3001C177.2 56.9001 175.5 60.4001 173.6 61.6001C163.2 71.4001 153.3 81.0001 143.3 90.6001C141.3 93.5001 138.1 96.3001 135.3 98.4001C130.4 103.3 125.6 109 121 112.3C113.9 120.1 106.5 126.8 98.8999 134C89.2999 143.2 81.7999 152.3 72.1999 160.7C66.4999 167.8 59.0999 171.5 52.8999 178.8C39.7999 189.6 56.0999 198.6 44.1999 216.5C40.2999 221 34.9999 223.2 30.3999 225.5C26.6999 225.8 22.5999 226 19.0999 226.3C-4.90007 224.7 -4.60007 189.7 11.7999 178.1Z" fill="#141413"/>
</svg>
