<svg width="232" height="229" viewBox="0 0 232 229" fill="none" xmlns="http://www.w3.org/2000/svg">
<path d="M122.036 86.7314C121.787 86.7427 121.957 86.2841 121.916 86.1169C122.155 86.0898 122 86.5326 122.036 86.7314Z" fill="#141413"/>
<path d="M144.868 78.504H144.743C144.784 78.47 144.814 78.2503 144.868 78.504Z" fill="#141413"/>
<path d="M20.4058 51.003C20.4487 51.0279 20.661 51.3283 20.3448 51.2493C20.2387 51.2651 20.268 51.0211 20.2816 51.003C20.3177 51.0188 20.3764 50.985 20.4058 51.003Z" fill="#141413"/>
<path d="M38.4465 221.898H38.5711C38.5326 221.93 38.5009 222.152 38.4465 221.898Z" fill="#141413"/>
<path d="M192.125 131.66H192.25C192.198 131.907 192.18 131.712 192.125 131.66Z" fill="#141413"/>
<path d="M226.496 35.6562H226.62C226.541 35.8125 226.518 35.851 226.496 35.6562Z" fill="#141413"/>
<path d="M169.295 169.964H169.42C169.365 170.223 169.302 169.969 169.295 169.964Z" fill="#141413"/>
<path d="M31.6976 181.017H31.573C31.6251 180.97 31.6546 181.008 31.6976 181.017Z" fill="#141413"/>
<path d="M155.547 158.181H155.671C155.619 158.428 155.603 158.235 155.547 158.181Z" fill="#141413"/>
<path d="M82.8813 136.819C82.6525 136.776 82.7726 136.78 82.8813 136.694V136.819Z" fill="#141413"/>
<path d="M98.4686 89.3066H98.2246V89.4264H98.4686V89.3066Z" fill="#141413"/>
<path d="M5.24536 42.1641L5.30634 42.225L5.24536 42.2859V42.1641Z" fill="#141413"/>
<path d="M228.642 31.2363L228.703 31.2973L228.642 31.3605V31.2363Z" fill="#141413"/>
<path d="M98.7766 89.7974L98.8398 89.8606L98.7766 89.9215V89.7974Z" fill="#141413"/>
<path d="M80.1196 120.122L80.1806 120.183L80.1196 120.243V120.122Z" fill="#141413"/>
<path d="M63.0586 155.848L63.1196 155.909L63.0586 155.97V155.848Z" fill="#141413"/>
<path d="M111.174 163.335L111.237 163.398L111.174 163.459V163.335Z" fill="#141413"/>
<path d="M186.417 201.396L186.478 201.457L186.417 201.518V201.396Z" fill="#141413"/>
<path d="M94.604 203.972L94.665 204.035L94.604 204.096V203.972Z" fill="#141413"/>
<g clip-path="url(#clip0_287_698)">
<path d="M121 86.7001C120.8 86.7001 121 86.3001 120.9 86.1001C121.1 86.1001 120.9 86.5001 121 86.7001Z" fill="#141413"/>
<path d="M-4.99636e-05 26.8998C1.09995 6.19977 19.2999 -3.10023 37.2999 5.19977C48.3999 11.6998 51.8 25.7998 47.9 37.3998C48.3 43.9998 54.2 48.0998 58.7 52.0998C60 53.2998 61 54.6998 61.9 56.1998C66.1 63.4998 74.1 68.3998 80.2999 74.3998C86.1 78.9998 91.5999 84.1998 97.0999 89.0998C100.6 92.2998 102.9 94.7998 107.2 91.0998C113.7 85.3998 111.4 63.5998 110 52.9998C109.6 50.4998 106.9 49.2998 104.8 48.2998C101.3 45.8998 97.7999 43.1998 95.5999 39.5998C88.7999 27.4998 93.3999 8.79977 106 2.09977C109.2 -0.100233 112.8 0.499767 116.5 0.399767C121.7 -0.700233 126.4 -0.100233 130.8 3.09977C138.5 6.89977 142.2 15.3998 142.6 23.3998C142 28.9998 139.4 35.5998 136.6 40.3998C134.6 43.6998 131.8 45.6998 128.5 47.8998C126.8 48.7998 125 49.4998 124.2 51.2998C121.2 56.2998 121.2 61.7998 121.3 67.3998C122 74.6998 120.4 82.1998 121.5 89.3998C127.5 99.6998 138.3 83.1998 143.3 78.8998C155.7 65.2998 170.7 52.9998 182.1 39.0998C184.4 35.9998 184 32.2998 183.6 28.8998C184.4 23.3998 185.3 16.0998 188.5 11.4998C196.5 -0.100234 217.1 -1.90023 224.7 10.7998C238.9 28.5998 214.8 59.8998 194.7 46.0998C188.7 44.2998 185 51.9998 181.2 55.4998C171.5 64.2998 162.8 74.0998 153.7 83.3998C149 89.9998 130.7 100.1 141 108.7C148.1 110.9 161.7 110.4 170.4 108.7C174.2 108.7 178.4 108.5 181.6 106.3C187.9 101.1 192.4 93.0998 201.3 91.8998C213 88.7998 226.7 98.1998 227.1 110.6C229.8 127.4 212.9 143.8 196.9 135.4C192.6 132.8 189.6 128.8 186.8 124.7C180 115.3 168 120.4 158.2 119.6C152.6 120.2 146.9 118.6 141.5 120C137.9 121.5 137.7 126.1 139.6 129.2C141.2 131.7 144.1 133.5 146.2 135.4C159.2 150.3 175.2 162.4 188.4 176.7C197.9 187 201.8 174 215.2 179.9C231.2 187.2 234.2 202.9 225.4 217.5C223.6 221.1 219 221.9 215 222.9C208 226 199.9 224.6 194.1 219.7C182.5 213.7 185.2 202.8 187.7 192.4C188.2 185.2 179.9 181.8 176.1 176.8C168.3 167.8 158 162 149.8 153.2C143.6 149.6 134.1 132.9 126.8 137C124.1 138.6 121.2 141.5 121.5 144.9C121.3 151.3 120.7 158 121.8 163.8C123 170 119.6 178.2 124.9 182.8C151 193.3 138 235.4 109.9 227.2C90.0999 224.1 89.9999 197.1 102.3 185.5C104.5 183.1 108.6 183.5 110.1 180.3C111.9 176.5 110.2 172.5 110.2 168.8C110.2 166.3 110.7 163.4 110.7 160.9C110.7 154.2 112.9 146.1 110 139.8C108.6 137.9 105.5 138 103.1 136.9C100.5 135.4 98.3999 133.9 95.6999 136.2C79.2999 152.3 61.7999 168.1 46.0999 184.8C41.0999 191.9 53 197.7 44.2 214.4C38.7 224.6 23.4 230.3 14 222.2C11.7 219.3 7.99995 217.9 5.59995 215.1C-7.40005 197.2 12.5 172.1 32.4 180.7C38.5 181.1 42.7 176.4 46.5 172.3C51.9 166.9 57.6 161.6 62.4 155.8C69.1 147.7 77.2 141 84.7999 133.9C89.7 131.4 95.0999 121.9 87.6999 119.4C81.5999 119.4 74.5999 119.7 68.3999 119.7C63.3999 120.1 58.1999 120.8 53.0999 120.1C50.0999 120.1 48 122.2 47.4 125.1C44.5 134 35.2999 139.9 26.2 139.5C16.8 138.2 4.59995 133.1 2.39995 123C0.89995 107.1 16.7 88.0998 33.2 95.3998C38.6 97.4998 43.4 101.6 46.5 106.5C47.7 108.1 48.9 109.5 50.7 110.1C56.1 111 61.8999 109.6 67.3999 109.7C75.0999 108.8 83.3999 110.5 90.7999 108.4C92.2999 106.8 94.7999 102.5 92.1999 100.7C87.1999 96.8998 82.4999 92.1998 77.8999 87.8998C66.3999 78.5998 58.2 65.2998 46.2999 56.6998C35.7 44.9998 38 51.8998 26.1 51.4998C12.5 50.9998 -1.80005 41.8998 -4.99636e-05 27.0998V26.8998ZM107.9 105.1H107.7C107.7 105.2 107.9 105.2 107.9 105.2V105.1Z" fill="#141413"/>
<path d="M143.9 78.5H143.8C143.8 78.5 143.8 78.2 143.9 78.5Z" fill="#141413"/>
<path d="M19.3999 51C19.3999 51 19.6999 51.3 19.3999 51.2C19.2999 51.2 19.3999 51 19.3999 51C19.3999 51 19.3999 51 19.4999 51H19.3999Z" fill="#141413"/>
<path d="M37.3999 221.9H37.4999C37.4999 221.9 37.4999 222.2 37.3999 221.9Z" fill="#141413"/>
<path d="M191.1 131.7H191.2C191.2 131.9 191.2 131.7 191.1 131.7Z" fill="#141413"/>
<path d="M225.5 35.7002H225.6C225.6 35.9002 225.5 35.9002 225.5 35.7002Z" fill="#141413"/>
<path d="M168.3 170H168.4C168.4 170.3 168.3 170 168.3 170Z" fill="#141413"/>
<path d="M154.5 158.2H154.6C154.6 158.4 154.6 158.2 154.5 158.2Z" fill="#141413"/>
<path d="M81.8999 136.8C81.6999 136.8 81.7999 136.8 81.8999 136.7V136.8Z" fill="#141413"/>
<path d="M97.5 89.2998H97.3C97.3 89.3998 97.5 89.3998 97.5 89.3998V89.2998Z" fill="#141413"/>
</g>
<defs>
<clipPath id="clip0_287_698">
<rect width="231" height="229" fill="white"/>
</clipPath>
</defs>
</svg>
